<svg id="visual" viewBox="0 0 900 600" width="900" height="600" xmlns="http://www.w3.org/2000/svg" xmlns:xlink="http://www.w3.org/1999/xlink" version="1.1"><rect x="0" y="0" width="900" height="600" fill="#f7f8fc"></rect><path d="M0 480L21.5 482.7C43 485.3 86 490.7 128.8 493.7C171.7 496.7 214.3 497.3 257.2 490.2C300 483 343 468 385.8 464.8C428.7 461.7 471.3 470.3 514.2 474.5C557 478.7 600 478.3 642.8 480.5C685.7 482.7 728.3 487.3 771.2 491.2C814 495 857 498 878.5 499.5L900 501L900 601L878.5 601C857 601 814 601 771.2 601C728.3 601 685.7 601 642.8 601C600 601 557 601 514.2 601C471.3 601 428.7 601 385.8 601C343 601 300 601 257.2 601C214.3 601 171.7 601 128.8 601C86 601 43 601 21.5 601L0 601Z" fill="#6674cc"></path><path d="M0 488L21.5 491.3C43 494.7 86 501.3 128.8 500.8C171.7 500.3 214.3 492.7 257.2 487.7C300 482.7 343 480.3 385.8 480.2C428.7 480 471.3 482 514.2 489C557 496 600 508 642.8 509.3C685.7 510.7 728.3 501.3 771.2 494.2C814 487 857 482 878.5 479.5L900 477L900 601L878.5 601C857 601 814 601 771.2 601C728.3 601 685.7 601 642.8 601C600 601 557 601 514.2 601C471.3 601 428.7 601 385.8 601C343 601 300 601 257.2 601C214.3 601 171.7 601 128.8 601C86 601 43 601 21.5 601L0 601Z" fill="#606ec9"></path><path d="M0 534L21.5 534.5C43 535 86 536 128.8 533.2C171.7 530.3 214.3 523.7 257.2 522.2C300 520.7 343 524.3 385.8 523.5C428.7 522.7 471.3 517.3 514.2 513.7C557 510 600 508 642.8 513.3C685.7 518.7 728.3 531.3 771.2 534.8C814 538.3 857 532.7 878.5 529.8L900 527L900 601L878.5 601C857 601 814 601 771.2 601C728.3 601 685.7 601 642.8 601C600 601 557 601 514.2 601C471.3 601 428.7 601 385.8 601C343 601 300 601 257.2 601C214.3 601 171.7 601 128.8 601C86 601 43 601 21.5 601L0 601Z" fill="#5a68c6"></path><path d="M0 535L21.5 539C43 543 86 551 128.8 552C171.7 553 214.3 547 257.2 545.3C300 543.7 343 546.3 385.8 546.7C428.7 547 471.3 545 514.2 544.3C557 543.7 600 544.3 642.8 541.8C685.7 539.3 728.3 533.7 771.2 534.8C814 536 857 544 878.5 548L900 552L900 601L878.5 601C857 601 814 601 771.2 601C728.3 601 685.7 601 642.8 601C600 601 557 601 514.2 601C471.3 601 428.7 601 385.8 601C343 601 300 601 257.2 601C214.3 601 171.7 601 128.8 601C86 601 43 601 21.5 601L0 601Z" fill="#5462c3"></path><path d="M0 554L21.5 555.8C43 557.7 86 561.3 128.8 566.3C171.7 571.3 214.3 577.7 257.2 580.2C300 582.7 343 581.3 385.8 580.2C428.7 579 471.3 578 514.2 574C557 570 600 563 642.8 562C685.7 561 728.3 566 771.2 567.8C814 569.7 857 568.3 878.5 567.7L900 567L900 601L878.5 601C857 601 814 601 771.2 601C728.3 601 685.7 601 642.8 601C600 601 557 601 514.2 601C471.3 601 428.7 601 385.8 601C343 601 300 601 257.2 601C214.3 601 171.7 601 128.8 601C86 601 43 601 21.5 601L0 601Z" fill="#4e5dc0"></path></svg>